<?xml version="1.0" ?><!DOCTYPE svg  PUBLIC '-//W3C//DTD SVG 1.1//EN'  'http://www.w3.org/Graphics/SVG/1.1/DTD/svg11.dtd'><svg height="512px" style="enable-background:new 0 0 512 512;" version="1.1" viewBox="0 0 512 512" width="512px" xml:space="preserve" xmlns="http://www.w3.org/2000/svg" xmlns:xlink="http://www.w3.org/1999/xlink"><g id="_x31_05-Earth_x2C__googleearth_x2C__google_earth"><g><g><g><path d="M479.689,256c0,123.876-100.148,224.296-223.688,224.296      c-123.541,0-223.689-100.42-223.689-224.296S132.461,31.708,256.002,31.708C379.541,31.708,479.689,132.124,479.689,256      L479.689,256z M479.689,256" style="fill:#F1F5F7;"/><path d="M256.002,16.75C124.441,16.75,17.397,124.083,17.397,256      c0,131.915,107.044,239.25,238.605,239.25c131.559,0,238.602-107.335,238.602-239.25      C494.604,124.083,387.561,16.75,256.002,16.75L256.002,16.75z M460.002,211.858c-4.83-5.654-9.813-11.665-14.701-17.643      c-16.523-20.218-39.131-47.879-69.314-78.174c-30.305-30.418-60.07-51.741-87.15-66.544      C373.896,63.076,441.992,128.124,460.002,211.858L460.002,211.858z M112.478,104.345c50.705,2.99,140.002,46.772,183.727,83.59      c24.877,20.934,117.867,91.598,164.457,109.151c-2.33,11.694-5.789,22.974-9.994,33.89h-25.557      c-16.434,0-53.119-8.104-181.785-77.905c-86.672-47.075-146.532-63.942-188.289-53.057      C65.293,162.992,85.431,130.093,112.478,104.345L112.478,104.345z M55.722,314.707c25.979-0.839,82.406,14.503,144.118,44.681      c73.695,36,123.205,51.375,165.592,51.375c11.99,0,22.752-0.594,32.234-1.435c-13.059,12.142-27.525,22.752-43.332,31.252      c-57.713-0.269-101.109-12.052-132.811-20.724c-18.523-5.086-33.113-9.094-45.008-9.094c-13.45,0-30.746,4.302-44.527,13.341      C95.899,397.183,68.669,359.027,55.722,314.707L55.722,314.707z M55.722,314.707" style="fill:#1F8EEF;"/></g></g></g></g><g id="Layer_1"/></svg>